<?xml version="1.0" encoding="UTF-8"?>
<svg width="177px" height="42px" viewBox="0 0 177 42" version="1.1" xmlns="http://www.w3.org/2000/svg" xmlns:xlink="http://www.w3.org/1999/xlink">
    <!-- Generator: Sketch 50.2 (55047) - http://www.bohemiancoding.com/sketch -->
    <title>westland-flat</title>
    <desc>Created with Sketch.</desc>
    <defs></defs>
    <g id="APPROVED" stroke="none" stroke-width="1" fill="none" fill-rule="evenodd">
        <g id="page-load" transform="translate(-30.000000, -291.000000)" fill-rule="nonzero">
            <g id="menu-bg">
                <g id="Group-5" transform="translate(30.000000, 291.500000)">
                    <g id="westland-flat">
                        <path d="M51.193451,18.3897648 C44.4293539,18.3897648 39.7187144,22.9375576 39.7187144,29.4474549 C39.7187144,36.1996363 44.179126,40.5686949 51.0782667,40.5686949 C57.0360739,40.5686949 59.93554,38.1339377 60.8887892,37.3316197 L61.1509327,37.1290542 C61.2184055,37.0727028 61.2305686,36.9736605 61.1787358,36.9026575 L58.4699195,33.3637201 C58.4158811,33.293641 58.3165242,33.2779531 58.2435228,33.3279733 C56.4076546,34.5659268 54.2569017,35.2548291 52.0434315,35.313909 C50.6969671,35.313909 47.5035824,34.9445249 46.9117736,31.5326874 L46.868083,31.2705438 L61.6116698,31.2705438 C61.7030549,31.2728904 61.7800844,31.2028636 61.7864321,31.111669 C61.8062915,30.7740599 61.8698414,29.8684732 61.8698414,28.8477023 C61.8698414,22.675414 57.4769516,18.3897648 51.193451,18.3897648 Z M46.8958861,27.0087258 L46.9356048,26.7505541 C47.2012467,24.681567 48.9625071,23.1319814 51.0484777,23.1319814 C53.1344483,23.1319814 54.8957086,24.681567 55.1613506,26.7505541 L55.209013,27.0087258 L46.8958861,27.0087258 Z" id="Shape" fill="#FFFFFF"></path>
                        <path d="M65.2101853,33.0181673 L62.6681876,37.041673 C62.612101,37.1082213 62.612101,37.2054934 62.6681876,37.2720416 C64.9480418,39.4128803 68.1215671,40.5528074 71.6366733,40.5528074 C74.4169833,40.5528074 76.5498783,39.9411392 78.1664299,38.6860278 C79.7841316,37.4326726 80.7206811,35.4934123 80.696512,33.4471294 C80.7275534,31.812279 80.0923825,30.235105 78.936973,29.0780708 C78.1215135,28.3738874 77.1773466,27.8343634 76.156663,27.4893222 C75.2312169,27.1397975 74.5877738,26.9253165 73.1618719,26.5042981 C71.9703105,26.1627172 70.2187152,25.642402 70.2187152,24.6256029 C70.2187152,24.2284158 70.2187152,23.2672229 72.5621193,23.2672229 C74.1270367,23.2672229 76.4942721,24.2800501 77.7255522,25.2531586 C77.811961,25.3055991 77.9241313,25.283165 77.9837238,25.2015243 L80.2318031,21.1343279 C80.2348086,21.1185826 80.2348086,21.1024108 80.2318031,21.0866655 C80.2237041,21.0682446 80.2114725,21.0519359 80.1960562,21.039003 C78.1425987,19.2874077 75.3027106,18.3579898 71.986198,18.3579898 C67.2000929,18.3579898 63.859749,21.1382998 63.859749,25.1101712 C63.859749,27.7554376 65.1307479,29.7056265 67.5337301,30.7542006 C68.5013451,31.1526359 69.4970099,31.479214 70.5126337,31.7312809 L70.8383271,31.8305777 L70.9535114,31.8663246 C72.5780068,32.3389773 74.2382491,32.9466736 74.2382491,33.8522603 C74.2382491,34.5473378 73.9562462,35.468812 71.5175171,35.468812 C69.8096124,35.468812 65.55971,33.0380266 65.4087789,32.9546173 C65.3358659,32.9267229 65.2533586,32.9531252 65.2101853,33.0181673 Z" id="Shape" fill="#FFFFFF"></path>
                        <path d="M98.3236775,18.226918 L98.3236775,39.917308 C98.3236775,40.0094393 98.3983647,40.0841266 98.4904961,40.0841266 L105.302256,40.0841266 C105.394387,40.0841266 105.469074,40.0094393 105.469074,39.917308 L105.469074,10.1878502 L98.3236775,18.226918 Z" id="Shape" fill="#FFFFFF"></path>
                        <path d="M125.26091,20.8841 C123.410018,19.1761953 120.959373,18.413596 117.317167,18.413596 C114.179595,18.4250008 111.086632,19.1574732 108.277187,20.5544347 C108.235536,20.5693759 108.202003,20.6010108 108.184664,20.6417218 C108.167324,20.6824328 108.167748,20.7285308 108.185834,20.7689158 C108.253356,20.94765 109.55613,24.2562189 109.973176,25.209468 C109.994155,25.2527342 110.0324,25.2851527 110.078518,25.2987613 C110.124636,25.3123698 110.174354,25.3059076 110.215461,25.2809617 C112.145263,24.1418383 114.330709,23.5066931 116.570455,23.4340415 C119.271327,23.4340415 120.697229,24.5382218 120.697229,26.6115386 L120.697229,26.9173727 L115.581459,27.1358257 C110.366392,27.3622223 107.240529,29.8287545 107.240529,33.7291323 C107.240529,38.4596312 111.152822,40.5766386 115.025397,40.5766386 C117.071334,40.6278088 119.053026,39.8600105 120.530411,38.4437437 L120.879935,38.1259939 L120.879935,38.4477155 C120.907738,38.9561151 120.955401,39.7822643 120.963345,39.9570267 C120.974907,40.0433884 121.047058,40.1088277 121.134135,40.1119297 L127.648004,40.1119297 C127.692944,40.1119424 127.735988,40.0938228 127.76739,40.0616738 C127.798791,40.0295249 127.815893,39.9860664 127.814823,39.9411392 L127.814823,28.1129061 C127.826739,24.7924215 127.036336,22.5642016 125.26091,20.8841 Z M120.721061,34.1104319 L120.685314,34.1660381 C119.937139,35.2410177 118.714212,35.8865335 117.404548,35.8977741 C115.569543,35.8977741 114.385926,34.9484968 114.385926,33.4749325 C114.385926,31.512828 116.371861,31.1394721 117.563423,31.0918096 L120.74092,30.8932161 L120.721061,34.1104319 Z" id="Shape" fill="#FFFFFF"></path>
                        <path d="M141.20003,24.3277126 C143.749971,24.3277126 144.262343,26.1190266 144.262343,29.0065771 L144.262343,39.9411392 C144.262343,40.0354642 144.338808,40.1119297 144.433133,40.1119297 L151.240921,40.1119297 C151.285861,40.1119424 151.328905,40.0938228 151.360306,40.0616738 C151.391707,40.0295249 151.408809,39.9860664 151.407739,39.9411392 L151.407739,27.5608159 C151.407739,19.3628733 146.943356,18.4255116 143.583153,18.4255116 C141.418428,18.357152 139.347903,19.3122129 137.994729,21.0032562 L137.597542,21.4997401 L137.597542,21.0628342 C137.597542,21.0628342 137.625345,19.0768985 137.625345,18.9776017 C137.625345,18.8832768 137.54888,18.8068113 137.454555,18.8068113 L130.650739,18.8068113 C130.556414,18.8068113 130.479949,18.8832768 130.479949,18.9776017 L130.479949,39.9530548 C130.478879,39.997982 130.495981,40.0414405 130.527382,40.0735894 C130.558783,40.1057384 130.601827,40.123858 130.646767,40.1238453 L137.458527,40.1238453 C137.503467,40.123858 137.546511,40.1057384 137.577912,40.0735894 C137.609313,40.0414405 137.626415,39.997982 137.625345,39.9530548 L137.625345,29.5586673 C137.625345,25.9879548 138.761301,24.3277126 141.20003,24.3277126 Z" id="Shape" fill="#FFFFFF"></path>
                        <path d="M176.954816,10.5850374 C176.955917,10.5404659 176.938696,10.4973922 176.907169,10.4658658 C176.875643,10.4343394 176.832569,10.4171177 176.787998,10.4182188 L169.996098,10.4182188 C169.95085,10.4159941 169.906721,10.432718 169.874313,10.4643724 C169.841905,10.4960267 169.824148,10.5397502 169.825307,10.5850374 L169.825307,20.9913406 L169.447979,20.6299003 C168.586083,19.7997791 166.64781,18.413596 163.3591,18.413596 C157.421153,18.413596 153.274519,22.9613888 153.274519,29.475258 C153.274519,35.9891271 157.421153,40.596498 163.3591,40.596498 C166.000395,40.596498 168.228615,39.7107707 169.805448,38.0346409 L170.202635,37.6136225 L170.202635,38.0108097 C170.202635,38.5470123 170.17086,39.8656736 170.17086,39.9689423 C170.171901,40.0131895 170.190483,40.0552094 170.222515,40.0857517 C170.254547,40.116294 170.297404,40.1328551 170.34165,40.131789 L176.787998,40.131789 C176.832938,40.1318018 176.875982,40.1136821 176.907383,40.0815332 C176.938784,40.0493843 176.955886,40.0059257 176.954816,39.9609986 C176.954816,39.853758 176.954816,24.4031781 176.954816,11.399271 L176.954816,10.5850374 Z M165.301346,34.6664939 C162.449542,34.6664939 160.5351,32.5455146 160.5351,29.3878768 C160.5351,26.230239 162.449542,24.1132315 165.301346,24.1132315 C168.153149,24.1132315 170.023901,26.2342109 170.023901,29.3918487 C170.023901,32.5494864 168.125346,34.6664939 165.301346,34.6664939 Z" id="Shape" fill="#FFFFFF"></path>
                        <path d="M81.5266332,18.2308899 C81.4803322,18.2286681 81.4351944,18.2458117 81.4020424,18.2782103 C81.3688905,18.3106088 81.3507139,18.3553406 81.3518708,18.4016804 L81.3518708,23.8312286 C81.3507698,23.8758001 81.3679915,23.9188738 81.3995179,23.9504002 C81.4310443,23.9819266 81.474118,23.9991483 81.5186894,23.9980472 L84.3268025,23.9980472 L84.3268025,32.2595398 C84.3268025,35.5363338 84.7676803,37.3236759 85.8956918,38.6145341 C87.0872532,40.0046891 88.8428204,40.6799073 91.2378588,40.6799073 C92.6784787,40.7015639 94.1156018,40.5319406 95.5115925,40.1754796 C95.5941439,40.1499272 95.6483671,40.071057 95.6426643,39.9848298 L95.6426643,34.1580944 C95.6428695,34.1352884 95.630838,34.1141212 95.6111379,34.1026295 C95.5914377,34.0911377 95.5670902,34.0910838 95.5473394,34.1024882 C95.3924364,34.1580944 95.2613646,34.2097287 95.2613646,34.2137006 C94.7620825,34.3910824 94.2339647,34.473264 93.704391,34.4559847 C92.8504386,34.4559847 92.5326889,34.2971099 92.3182079,34.0587976 C92.1037268,33.8204853 91.8018646,33.4789044 91.8018646,31.6756747 L91.8018646,24.0020191 L93.1721602,24.0020191 L98.30779,18.2308899 L91.8018646,18.2308899 L91.8018646,13.1071758 C91.8018646,13.0396539 91.8018646,12.9641884 91.6271022,12.9641884 L84.4499306,12.9641884 C84.3387182,12.9641884 84.3268025,12.9959634 84.3268025,13.0714289 L84.3268025,18.2348618 L81.5266332,18.2308899 Z" id="Shape" fill="#FFFFFF"></path>
                        <polygon id="Shape" fill="#C48E67" points="98.3236775 16.0741637 98.3236775 0 105.469074 8.03906779"></polygon>
                        <path d="M42.5943493,10.3904157 L35.4012901,10.3904157 C35.317249,10.3937649 35.2481567,10.4578017 35.2384434,10.5413468 C35.0716248,11.18479 30.5834101,28.732518 30.555607,28.8477023 C30.5352762,28.9532829 30.4446133,29.0307585 30.3371541,29.0343802 C30.2296948,29.0307585 30.1390319,28.9532829 30.1187011,28.8477023 C30.0869262,28.7126586 25.1896087,10.5056 25.1896087,10.5056 C25.164719,10.4369559 25.0997766,10.391021 25.0267619,10.3904157 L18.135565,10.3904157 C18.0621579,10.3908517 17.9976627,10.4392231 17.9766901,10.5095718 C17.9766901,10.5095718 17.9766901,10.5095718 17.9766901,10.5095718 C17.9766901,10.5095718 13.0634852,28.9311116 13.0555414,28.9628865 C13.0312532,29.0462255 12.9556521,29.1041327 12.8688635,29.1058739 C12.7827316,29.1059487 12.7067946,29.0493999 12.6821855,28.9668584 C12.6821855,28.9271397 8.11453335,11.2721711 7.91593978,10.5175156 C7.89625843,10.4489946 7.83608621,10.3999067 7.76500866,10.3943876 L0.567977616,10.3943876 C0.51374299,10.3892704 0.460541728,10.4116105 0.426219937,10.4539141 C0.391898146,10.4962177 0.381002219,10.5528811 0.397187144,10.6048967 C0.734796216,11.7964582 8.82549834,39.6789957 8.90890764,39.9689423 C8.93250038,40.0421008 9.00302944,40.0896669 9.07969811,40.0841266 L16.0145856,40.0841266 C16.0907504,40.0841266 16.1567414,40.0313337 16.1734605,39.9570267 C16.2449542,39.7187144 21.2217091,21.7261368 21.4481058,20.9595656 C21.4481058,20.9595656 21.5354869,20.637844 21.5513744,20.5901815 C21.5513744,20.5660519 21.5709354,20.546491 21.595065,20.546491 C21.6191947,20.546491 21.6387556,20.5660519 21.6387556,20.5901815 L21.7420243,20.9595656 L27.0087258,39.9649704 C27.0316613,40.0373563 27.0996327,40.0859074 27.1755444,40.0841266 L34.0905726,40.0841266 C34.1644243,40.0850314 34.2296376,40.0361214 34.2494474,39.9649704 C34.3010818,39.7902081 42.757196,10.6009249 42.7611679,10.5929811 C42.7705992,10.5431779 42.7574211,10.4917584 42.7251982,10.4526306 C42.6929752,10.4135027 42.6450369,10.3907094 42.5943493,10.3904157 Z" id="Shape" fill="#FFFFFF"></path>
                    </g>
                </g>
            </g>
        </g>
    </g>
</svg>